<svg width="32" height="32" viewBox="0 0 32 32" fill="none" xmlns="http://www.w3.org/2000/svg">
<rect width="32" height="32" rx="16" transform="matrix(1 0 0 -1 0 32)" fill="white"/>
<path d="M17.2204 19.4698C17.1467 19.5385 17.0876 19.6213 17.0466 19.7133C17.0056 19.8053 16.9836 19.9046 16.9818 20.0053C16.98 20.106 16.9986 20.2061 17.0363 20.2994C17.074 20.3928 17.1302 20.4777 17.2014 20.5489C17.2726 20.6201 17.3574 20.6762 17.4508 20.714C17.5442 20.7517 17.6442 20.7702 17.7449 20.7684C17.8456 20.7667 17.945 20.7446 18.037 20.7036C18.129 20.6626 18.2118 20.6035 18.2804 20.5298L22.2804 16.5298C22.4209 16.3892 22.4998 16.1986 22.4998 15.9998C22.4998 15.8011 22.4209 15.6105 22.2804 15.4698L18.2804 11.4698C18.2118 11.3962 18.129 11.3371 18.037 11.2961C17.945 11.2551 17.8456 11.233 17.7449 11.2313C17.6442 11.2295 17.5442 11.248 17.4508 11.2857C17.3574 11.3234 17.2726 11.3796 17.2014 11.4508C17.1302 11.522 17.074 11.6069 17.0363 11.7002C16.9986 11.7936 16.98 11.8937 16.9818 11.9944C16.9836 12.0951 17.0056 12.1944 17.0466 12.2864C17.0876 12.3784 17.1467 12.4612 17.2204 12.5298L19.9404 15.2498H10.2504C10.0515 15.2498 9.86074 15.3289 9.72009 15.4695C9.57943 15.6102 9.50042 15.8009 9.50042 15.9998C9.50042 16.1988 9.57943 16.3895 9.72009 16.5302C9.86074 16.6708 10.0515 16.7498 10.2504 16.7498H19.9404L17.2204 19.4698Z" fill="#191919"/>
</svg>
